<!DOCTYPE svg PUBLIC "-//W3C//DTD SVG 1.1//EN" "http://www.w3.org/Graphics/SVG/1.1/DTD/svg11.dtd">
<!-- Uploaded to: SVG Repo, www.svgrepo.com, Transformed by: SVG Repo Mixer Tools -->
<svg height="800px" width="800px" version="1.1" id="_x32_" xmlns="http://www.w3.org/2000/svg" xmlns:xlink="http://www.w3.org/1999/xlink" viewBox="0 0 512 512" xml:space="preserve" fill="#ffffff" stroke="#ffffff">
<g id="SVGRepo_bgCarrier" stroke-width="0"/>
<g id="SVGRepo_tracerCarrier" stroke-linecap="round" stroke-linejoin="round"/>
<g id="SVGRepo_iconCarrier"> <style type="text/css"> .st0{fill:#ffffff;} </style> <g> <path class="st0" d="M500.608,274.494l-59.522-168.763c37.592-10.34,41.212-33.289,44.114-41.73 c4.028-11.737-13.224-17.368-18.954-8.672c-5.729,8.696-22.316,28.275-67.087,21.38c-36.068-5.573-96.345-14.689-135.926-13.012 V28.386c0-8.779-7.122-15.914-15.917-15.914c-8.796,0-15.921,7.135-15.921,15.914v45.413l-1.241-4.324 c-33.453,9.6-96.497,63.668-130.796,93.266c-34.288,29.607-58.745,21.807-68.218,17.475c-9.469-4.34-21.103,9.576-11.458,17.392 c6.353,5.145,19.673,20.286,50.578,14.22L11.392,378.726H0c11.495,38.031,46.802,65.731,88.594,65.731 c41.788,0,77.094-27.7,88.598-65.731h-11.392l-63.676-180.541c32.516-19.908,82.269-58.769,129.272-76.244v19.357h-8.508v267.75 h-13.204V432.9c-8.717,0-17.565,0-24.872,0c-23.352,0-22.666,32.977-22.666,32.977c-19.233,0-28.85,15.107-28.85,33.65h228.038 c0-18.543-9.613-33.65-28.851-33.65c0,0,0.69-32.977-22.661-32.977c-7.307,0-16.16,0-24.872,0v-23.853H271.74v-267.75h-8.507 V112.62c45.112-9.864,102.505-5.072,141.638-4.447l-58.666,166.322h-11.392c11.499,38.039,46.806,65.756,88.594,65.756 c41.792,0,77.094-27.716,88.593-65.756H500.608z M141.244,378.726h-105.3l52.65-149.266L141.244,378.726z M370.761,274.494 l52.646-149.266l52.65,149.266H370.761z"/> </g> </g>
</svg>